<svg version="1.1" xmlns="http://www.w3.org/2000/svg" xmlns:xlink="http://www.w3.org/1999/xlink" width="70" height="70" viewBox="0,0,256,256"><g fill="none" fill-rule="nonzero" stroke="none" stroke-width="1" stroke-linecap="butt" stroke-linejoin="miter" stroke-miterlimit="10" stroke-dasharray="" stroke-dashoffset="0" font-family="none" font-weight="none" font-size="none" text-anchor="none" style="mix-blend-mode: normal"><g transform="translate(-0.00121,0) scale(3.65714,3.65714)"><path d="M39.5011,46.2161c8.6993,0 15.7515,-7.0522 15.7515,-15.7515c0,-8.6994 -7.0522,-15.7516 -15.7515,-15.7516c-8.6994,0 -15.7516,7.0522 -15.7516,15.7516c0,8.6993 7.0522,15.7515 15.7516,15.7515z" fill="#5b9213"></path><path d="M62.8705,4.58709c-7.8982,0 -15.6198,-1.48743 -22.951,-4.41931l-0.4186,-0.16778l-0.4174,0.16754c-7.3323,2.93212 -15.0541,4.41931 -22.9523,4.41931h-2.508v23.62745h-5.62543c-1.8609,0 -3.37521,1.5143 -3.37521,3.3752v19.127c0,1.8609 1.51431,3.3755 3.37521,3.3755h10.12583c0.0022,0 0.0034,0 0.0056,0c2.6575,4.2224 6.3399,7.7102 10.7302,10.1035l10.6412,5.8045l10.6412,-5.8045c9.3991,-5.1259 15.2363,-14.9607 15.2363,-25.666v-33.94241zM6.87254,50.7165v-19.127c0,-0.62 0.50405,-1.125 1.12499,-1.125h10.12587c0.6209,0 1.125,0.5053 1.125,1.125v19.127c0,0.62 -0.5041,1.1252 -1.125,1.1252h-10.12563c-0.62118,0 -1.12523,-0.5052 -1.12523,-1.1252zM21.4991,33.8299c3.7568,-0.2036 6.7507,-3.3248 6.7507,-7.1309v-5.7977c0,-1.5504 1.2613,-2.8129 2.8128,-2.8129c1.5515,0 2.8128,1.2623 2.8128,2.8129v7.0814c0,1.989 1.618,3.607 3.6071,3.607h8.2482c2.1477,0 3.8963,1.7474 3.8963,3.8963v12.4594c0,2.149 -1.7484,3.8963 -3.8963,3.8963h-16.5775c-0.8934,0 -1.7214,-0.4445 -2.2176,-1.1869c-0.9135,-1.3703 -2.4427,-2.1883 -4.0897,-2.1883h-1.3468zM63.1281,38.5293c0,9.8808 -5.3881,18.9592 -14.0628,23.6903l-9.5644,5.2172l-9.5645,-5.2172c-3.9143,-2.1355 -7.2221,-5.2104 -9.6545,-8.93c0.6829,-0.5739 1.132,-1.4063 1.1949,-2.3516c2.2704,3.9165 5.54,7.1254 9.5376,9.3058l8.4867,4.6298l8.4868,-4.6298c7.9512,-4.3363 12.8904,-12.6565 12.8904,-21.7135v-17.0667h-2.2502v17.0669c0,8.2323 -4.4892,15.7967 -11.717,19.7379l-7.41,4.0415l-7.41,-4.0415c-3.1705,-1.7294 -5.8338,-4.1731 -7.8353,-7.1299c0.3139,0.1968 0.5952,0.4466 0.8079,0.7652c0.9135,1.3703 2.4427,2.1883 4.0897,2.1883h16.5775c3.3899,0 6.1465,-2.7577 6.1465,-6.1466v-12.4594c0,-3.3888 -2.7564,-6.1465 -6.1465,-6.1465h-8.2482c-0.7481,0 -1.3568,-0.6087 -1.3568,-1.3568v-7.0814c0,-2.7915 -2.2716,-5.0631 -5.0631,-5.0631c-2.7914,0 -5.063,2.2716 -5.063,5.0631v5.7965c0,2.5654 -1.9903,4.6512 -4.505,4.8526c-0.0113,-0.9776 -0.4445,-1.8487 -1.1207,-2.4583v-17.8837c6.5346,-0.4016 12.9625,-1.73707 19.1268,-3.97625c6.1645,2.23894 12.5911,3.57445 19.1267,3.97625v1.2546h2.2502v-3.39563l-1.0733,-0.04944c-6.8114,-0.31155 -13.5114,-1.67081 -19.9134,-4.03912l-0.3905,-0.14521l-0.3905,0.14401c-6.4031,2.36831 -13.1031,3.72757 -19.9133,4.03912l-1.0734,0.05064v19.14713h-2.2502v-21.37719h0.2575c8.0367,0 15.8956,-1.48526 23.3697,-4.41499c7.4741,2.92973 15.3329,4.41499 23.3696,4.41499h0.2576v31.69199z" fill="#333333"></path><path d="M60.8777,16.9631h-2.2503v2.2503h2.2503z" fill="#333333"></path><path d="M16.9982,47.3413h-7.87564v2.2502h7.87564z" fill="#333333"></path></g></g></svg>