<svg version="1.1" xmlns="http://www.w3.org/2000/svg" xmlns:xlink="http://www.w3.org/1999/xlink" width="70" height="70" viewBox="0,0,256,256"><g fill="none" fill-rule="nonzero" stroke="none" stroke-width="1" stroke-linecap="butt" stroke-linejoin="miter" stroke-miterlimit="10" stroke-dasharray="" stroke-dashoffset="0" font-family="none" font-weight="none" font-size="none" text-anchor="none" style="mix-blend-mode: normal"><g transform="translate(0.1018,0.05981) scale(3.65714,3.65714)"><path d="M16.3789,18.5784h-8.74999v-5.4534h8.74999z" fill="#5b9213"></path><path d="M50.2852,42.6399c-5.4283,0 -9.8438,-4.4155 -9.8438,-9.8438c0,-5.4282 4.4155,-9.8437 9.8438,-9.8437c5.4282,0 9.8437,4.4166 9.8437,9.8437c0,5.4272 -4.4166,9.8438 -9.8437,9.8438z" fill="#5b9213"></path><path d="M40.4414,15.2972h19.6875v4.375h-19.6875z" fill="#5b9213"></path><path d="M24.8304,38.978l-1.89,-0.4725v-0.0011l-6.5625,-1.6406l-2.1875,-0.5469v-2.427h8.75v-21.875h-21.87497v21.875h6.5625v6.814c-1.01391,-0.8279 -2.29031,-1.3453 -3.69906,-1.3453c-1.57828,0 -2.86344,1.2852 -2.86344,2.8635c0,0.4397 0.105,0.8826 0.30297,1.2818l1.30594,2.6152c0.37843,0.7547 0.5775,1.6002 0.5775,2.4445v4.9c0,1.7292 0.595,3.4278 1.67781,4.783l2.44125,3.0494c-1.2611,1.9403 -1.93156,4.1836 -1.93156,6.499v1.0938h19.68746v-1.0938c0,-2.3165 -0.6693,-4.5598 -1.9304,-6.5001l2.4423,-3.0505c1.0806,-1.3541 1.6756,-3.0516 1.6756,-4.7819v-11.3006c0.0022,-1.5072 -1.0193,-2.8164 -2.4839,-3.1839zM3.25402,31.7035v-17.5h17.49998v17.5h-6.5625v-3.2813c0,-1.809 -1.4722,-3.2812 -3.2812,-3.2812c-1.80909,0 -3.28128,1.4722 -3.28128,3.2812v3.2813zM7.68918,66.7024c0.17281,-1.5367 0.70875,-3.01 1.57609,-4.3105l0.04266,-0.0645h11.95357l0.0438,0.0656c0.8662,1.2994 1.4011,2.7716 1.5739,4.3094zM25.129,53.4647c0,1.236 -0.4254,2.4489 -1.1965,3.4158l-2.6097,3.2594h-12.07503l-2.60859,-3.2583c-0.77219,-0.9691 -1.19875,-2.182 -1.19875,-3.4169v-4.9c0,-1.1823 -0.28,-2.3669 -0.80828,-3.4234l-1.30485,-2.613c-0.04812,-0.0973 -0.07328,-0.2023 -0.07328,-0.3051c0,-0.373 0.30297,-0.676 0.67594,-0.676c2.03875,0 3.69906,1.6603 3.69906,3.7002v1.7686v3.2812h2.1875v-3.2812v-1.7686v-16.8252c0,-0.6026 0.48998,-1.0937 1.09378,-1.0937c0.6037,0 1.0937,0.4911 1.0937,1.0937v7.3489v14.5261h2.1875v-11.7239l2.1875,0.5469v11.177h2.1875v-10.6301l2.1875,0.5468v10.0833h2.1875v-9.5375l1.3574,0.3402c0.4889,0.1225 0.8301,0.56 0.8301,1.0631z" fill="#000000"></path><path d="M63.4102,1.07849h-26.25c-3.0155,0 -5.4688,2.45328 -5.4688,5.46875v48.12496c0,3.0155 2.4533,5.4688 5.4688,5.4688h26.25c3.0154,0 5.4687,-2.4533 5.4687,-5.4688v-48.12496c0,-3.01547 -2.4544,-5.46875 -5.4687,-5.46875zM44.8164,3.26599h10.9375v1.09375c0,0.60266 -0.49,1.09375 -1.0937,1.09375h-8.75c-0.6038,0 -1.0938,-0.49109 -1.0938,-1.09375zM66.6914,54.6711c0,1.8091 -1.4722,3.2813 -3.2812,3.2813h-26.25c-1.8091,0 -3.2813,-1.4722 -3.2813,-3.2813v-48.12495c0,-1.80907 1.4722,-3.28125 3.2813,-3.28125h5.4687v1.09375c0,1.80906 1.4722,3.28125 3.2813,3.28125h8.75c1.809,0 3.2812,-1.47219 3.2812,-3.28125v-1.09375h5.4688c1.809,0 3.2812,1.47218 3.2812,3.28125z" fill="#000000"></path><path d="M53.5664,49.2024h-6.5625c-1.2064,0 -2.1875,0.9811 -2.1875,2.1875c0,2.4128 1.9622,4.375 4.375,4.375h2.1875c2.4128,0 4.375,-1.9622 4.375,-4.375c0,-1.2053 -0.9822,-2.1875 -2.1875,-2.1875zM51.3789,53.5774h-2.1875c-1.2064,0 -2.1875,-0.9811 -2.1875,-2.1875h6.5625c0,1.2064 -0.9822,2.1875 -2.1875,2.1875z" fill="#000000"></path><path d="M62.3164,9.82849h-24.0625c-1.2064,0 -2.1875,0.98111 -2.1875,2.18751v32.8125c0,1.2064 0.9811,2.1875 2.1875,2.1875h24.0625c1.2064,0 2.1875,-0.9811 2.1875,-2.1875v-32.8125c0,-1.2064 -0.9822,-2.18751 -2.1875,-2.18751zM38.2539,44.8274v-32.8125h24.0625l0.0022,32.8125z" fill="#000000"></path><path d="M48.098,34.5319l-1.4142,-1.4142l-1.5466,1.5465l2.9608,2.9608l7.3358,-7.3358l-1.5466,-1.5465z" fill="#000000"></path><path d="M40.4414,14.2035h19.6875v2.1875h-19.6875z" fill="#000000"></path><path d="M40.4414,18.5785h19.6875v2.1875h-19.6875z" fill="#000000"></path></g></g></svg>