<svg version="1.1" xmlns="http://www.w3.org/2000/svg" xmlns:xlink="http://www.w3.org/1999/xlink" width="60" height="60" viewBox="0,0,256,256"><defs><clipPath id="clip-1"><rect x="0" y="0" width="60" height="60" id="clip0_154_3593" fill="none"></rect></clipPath></defs><g fill="none" fill-rule="nonzero" stroke="none" stroke-width="1" stroke-linecap="butt" stroke-linejoin="miter" stroke-miterlimit="10" stroke-dasharray="" stroke-dashoffset="0" font-family="none" font-weight="none" font-size="none" text-anchor="none" style="mix-blend-mode: normal"><g transform="scale(4.26667,4.26667)"><g clip-path="url(#clip-1)"><path d="M47.4199,31.9355h1.9355v1.9355h-1.9355z" fill="#000000"></path><path d="M15.4844,33.8708h1.9355v1.9355h-1.9355z" fill="#000000"></path><path d="M44.0759,13.9807l-1.084,1.6038c1.6571,1.1199 3.1366,2.4349 4.4266,3.8979v3.9135c0,2.1746 -1.6278,4.0184 -3.7859,4.2882c-2.2549,0.2807 -3.956,2.2077 -3.956,4.4805c0,1.3803 0.6185,2.6656 1.6954,3.5275l0.9347,0.747c1.3127,1.05 1.9572,2.7341 1.6803,4.3927c-0.2235,1.3453 -1.0239,2.519 -2.193,3.2207c-1.8688,1.1218 -3.3715,2.7445 -4.3473,4.6946l-1.401,2.8017c-0.7896,1.5801 -1.2078,3.3502 -1.2078,5.1175v0.8874c-1.5617,0.3326 -3.1792,0.5108 -4.8387,0.5108c-3.4372,0 -6.6996,-0.757 -9.6387,-2.1028c3.0048,-2.0777 4.8,-5.4747 4.8,-9.1378c0,-1.7696 -0.8789,-3.4121 -2.3528,-4.394l-0.2967,-0.1975c-1.5353,-1.0231 -1.9511,-3.1046 -0.9271,-4.6384c1.1166,-1.6751 1.1893,-3.8015 0.1904,-5.5494l-1.4398,-2.5209c-0.8557,-1.497 -2.4571,-2.427 -4.1819,-2.427c-1.9808,0 -3.7363,1.1894 -4.472,3.028c-0.439,1.1005 -1.4889,1.8107 -2.67357,1.8107h-2.05079c0.82835,-6.5969 4.45456,-12.5669 10.05116,-16.3509l-1.0839,-1.6038c-6.94152,4.6927 -11.08561,12.4909 -11.08561,20.858c0,13.8735 11.28781,25.1613 25.16131,25.1613c13.8735,0 25.1613,-11.2878 25.1613,-25.1613c0,-8.3671 -4.1441,-16.1653 -11.0846,-20.858zM6.77337,34.8387c0,-0.3242 0.01654,-0.6455 0.02977,-0.9678h2.20389c1.98087,0 3.73627,-1.1893 4.47207,-3.0279c0.4389,-1.1006 1.4889,-1.8108 2.6735,-1.8108c1.0306,0 1.9899,0.5567 2.5007,1.4516l1.4402,2.521c0.6327,1.1071 0.5864,2.4543 -0.1209,3.5156c-1.6151,2.4227 -0.9583,5.7082 1.4648,7.3233l0.2972,0.197c0.9337,0.6214 1.4904,1.6629 1.4904,2.7832c0,3.0786 -1.5291,5.9355 -4.0907,7.6427l-0.7277,0.4849c-6.9453,-4.0184 -11.63323,-11.526 -11.63323,-20.1128zM36.7734,57.0542v-0.3879c0,-1.4691 0.3463,-2.9392 1.0036,-4.2523l1.4011,-2.8017c0.8099,-1.6203 2.0593,-2.9689 3.6115,-3.9012c1.6572,-0.9937 2.7894,-2.6561 3.1055,-4.5618c0.3922,-2.3499 -0.5203,-4.7343 -2.3806,-6.2218l-0.9347,-0.7471c-0.6143,-0.4914 -0.9677,-1.2271 -0.9677,-2.0158c0,-1.2985 0.9715,-2.4 2.2606,-2.5606c3.1248,-0.3908 5.4813,-3.0597 5.4813,-6.2091v-1.3798c2.4851,3.75 3.871,8.189 3.871,12.8236c0,10.4505 -6.9396,19.3094 -16.4516,22.2155z" fill="#000000"></path><path d="M11.6133,43.5483h1.9355v1.9355h-1.9355z" fill="#000000"></path><path d="M41.6133,49.3547h1.9355v1.9355h-1.9355z" fill="#000000"></path><path d="M18.3867,48.3872h1.9355v1.9355h-1.9355z" fill="#000000"></path><path d="M30.0005,38.7097c-0.9356,0 -1.797,-0.4674 -2.3069,-1.2522l-9.883,-15.2032c-1.522,-2.3419 -2.3262,-5.0566 -2.3262,-7.8506c0,-7.94232 6.4614,-14.4037 14.4036,-14.4037h0.225c7.9423,0 14.4036,6.46138 14.4036,14.4037c0,2.794 -0.8042,5.5087 -2.3262,7.8506l-9.883,15.2032c-0.5099,0.7848 -1.3713,1.2522 -2.3069,1.2522z" fill="#5b9213"></path><path d="M30.0007,23.2257c-4.8019,0 -8.7097,-3.9078 -8.7097,-8.7096c0,-4.80188 3.9078,-8.7097 8.7097,-8.7097c4.8018,0 8.7097,3.90782 8.7097,8.7097c0,4.8018 -3.9079,8.7096 -8.7097,8.7096zM30.0007,7.74188c-3.7354,0 -6.7742,3.03882 -6.7742,6.77422c0,3.7353 3.0388,6.7742 6.7742,6.7742c3.7353,0 6.7742,-3.0389 6.7742,-6.7742c0,-3.7354 -3.0389,-6.77422 -6.7742,-6.77422z" fill="#000000"></path></g></g></g></svg>